<?xml version="1.0" encoding="utf-8"?>
<!-- Generator: Adobe Illustrator 23.0.1, SVG Export Plug-In . SVG Version: 6.00 Build 0)  -->
<svg version="1.1" id="Layer_1" xmlns="http://www.w3.org/2000/svg" xmlns:xlink="http://www.w3.org/1999/xlink" x="0px" y="0px"
	 viewBox="0 0 228 65" style="enable-background:new 0 0 228 65;" xml:space="preserve">
<style type="text/css">
	.st0{fill:#333132;}
	.st1{fill:#00C6DD;}
</style>
<g>
	<path class="st0" d="M15.04,45.47c-0.69-1.01-1.04-2.4-1.04-4.18v-6.05c0-1.88,0.34-3.3,1.02-4.28c0.68-0.97,1.88-1.46,3.61-1.46
		c1.54,0,2.65,0.42,3.32,1.25c0.67,0.83,1.01,2.06,1.01,3.68v1.35h-2.27v-1.21c0-0.79-0.04-1.4-0.11-1.82
		c-0.07-0.42-0.25-0.76-0.54-1.02c-0.29-0.25-0.75-0.38-1.39-0.38c-0.65,0-1.14,0.14-1.45,0.41c-0.32,0.28-0.53,0.66-0.63,1.14
		c-0.1,0.49-0.15,1.14-0.15,1.96v6.8c0,0.88,0.07,1.56,0.21,2.05c0.14,0.49,0.37,0.85,0.69,1.06c0.32,0.21,0.76,0.32,1.33,0.32
		c0.61,0,1.06-0.13,1.36-0.4c0.3-0.27,0.48-0.64,0.56-1.1c0.08-0.47,0.12-1.1,0.12-1.91v-1.27h2.27v1.27c0,1.71-0.32,3.02-0.97,3.93
		c-0.64,0.91-1.77,1.37-3.36,1.37C16.93,46.98,15.73,46.47,15.04,45.47z"/>
	<path class="st0" d="M27.71,29.64h2.31l3.67,17.15h-2.27l-0.79-4.32h-3.5l-0.83,4.32h-2.25L27.71,29.64z M30.32,40.76l-1.44-7.73
		l-1.42,7.73H30.32z"/>
	<path class="st0" d="M35.69,29.64h3.46c1.74,0,3.02,0.36,3.83,1.07c0.81,0.71,1.22,1.87,1.22,3.48c0,2.2-0.71,3.54-2.12,4
		l2.44,8.59h-2.31l-2.25-8.04h-1.87v8.04h-2.4V29.64z M39.01,37.03c1.03,0,1.77-0.2,2.22-0.61c0.45-0.41,0.67-1.15,0.67-2.22
		c0-0.71-0.08-1.26-0.23-1.66c-0.16-0.4-0.43-0.7-0.83-0.89c-0.4-0.19-0.96-0.29-1.68-0.29h-1.06v5.67H39.01z"/>
	<path class="st0" d="M51.57,29.64h3.46c1.74,0,3.02,0.36,3.83,1.07c0.81,0.71,1.22,1.87,1.22,3.48c0,2.2-0.71,3.54-2.12,4
		l2.44,8.59h-2.31l-2.25-8.04h-1.87v8.04h-2.4V29.64z M54.88,37.03c1.03,0,1.77-0.2,2.22-0.61c0.45-0.41,0.67-1.15,0.67-2.22
		c0-0.71-0.08-1.26-0.23-1.66c-0.16-0.4-0.43-0.7-0.83-0.89c-0.4-0.19-0.96-0.29-1.68-0.29h-1.06v5.67H54.88z"/>
	<path class="st0" d="M62.59,29.64h6.67v1.78h-4.27v5.67h3.46v1.69h-3.46v6.29h4.31v1.71h-6.71V29.64z"/>
	<path class="st0" d="M71.8,29.64h1.63l4.88,11.39V29.64h2v17.15h-1.53l-4.95-11.71v11.71H71.8V29.64z"/>
	<path class="st0" d="M85.46,31.42h-2.91v-1.78h8.13v1.78h-2.82v15.37h-2.4V31.42z"/>
	<path class="st0" d="M94.45,29.64h2.31l3.67,17.15h-2.27l-0.79-4.32h-3.5l-0.83,4.32h-2.25L94.45,29.64z M97.06,40.76l-1.44-7.73
		l-1.42,7.73H97.06z"/>
	<path class="st0" d="M102.74,29.64h2.4v15.43h4.39v1.71h-6.79V29.64z"/>
	<path class="st0" d="M141.66,45.53c-0.69-0.98-1.04-2.44-1.04-4.37v-5.74c0-1.33,0.14-2.42,0.41-3.27
		c0.28-0.85,0.75-1.51,1.42-1.97c0.67-0.46,1.6-0.69,2.77-0.69c1.58,0,2.73,0.4,3.43,1.21c0.7,0.8,1.05,2.07,1.05,3.79v0.64h-2.25
		v-0.53c0-0.82-0.05-1.45-0.15-1.89c-0.1-0.44-0.31-0.78-0.63-1.01c-0.32-0.23-0.79-0.34-1.41-0.34c-0.67,0-1.16,0.15-1.49,0.46
		c-0.33,0.3-0.53,0.71-0.63,1.22c-0.09,0.51-0.14,1.19-0.14,2.03v6.35c0,1.31,0.16,2.25,0.48,2.83c0.32,0.57,0.93,0.86,1.84,0.86
		c0.89,0,1.5-0.31,1.84-0.93c0.33-0.62,0.5-1.62,0.5-2.98v-1.19h-2.19V38.3h4.35v8.49h-1.51l-0.23-1.97
		c-0.54,1.45-1.56,2.18-3.06,2.18C143.47,47,142.35,46.51,141.66,45.53z"/>
	<path class="st0" d="M155.57,29.64h2.31l3.67,17.15h-2.27l-0.79-4.32H155l-0.83,4.32h-2.25L155.57,29.64z M158.19,40.76l-1.44-7.73
		l-1.42,7.73H158.19z"/>
	<path class="st0" d="M164.51,31.42h-2.91v-1.78h8.13v1.78h-2.82v15.37h-2.4V31.42z"/>
	<path class="st0" d="M171.96,29.64h6.67v1.78h-4.27v5.67h3.46v1.69h-3.46v6.29h4.31v1.71h-6.71V29.64z"/>
	<path class="st0" d="M180.59,29.64h2l1.85,12.32l2.31-12.26h1.7l2.33,12.32l1.8-12.38h1.95l-2.76,17.15h-1.74l-2.4-12.7l-2.42,12.7
		h-1.83L180.59,29.64z"/>
	<path class="st0" d="M198.72,29.64h2.31l3.67,17.15h-2.27l-0.79-4.32h-3.5l-0.83,4.32h-2.25L198.72,29.64z M201.33,40.76
		l-1.44-7.73l-1.42,7.73H201.33z"/>
	<path class="st0" d="M208.01,40.73l-3.71-11.09h2.23l2.63,8.28l2.59-8.28H214l-3.69,11.09v6.05h-2.29V40.73z"/>
	<path class="st1" d="M136.05,40.82c-0.71-0.53-1.64-0.55-2.35-0.12l-2.73-2.05c0.42-0.7,0.66-1.51,0.66-2.38
		c0-2.57-2.09-4.65-4.67-4.65c-0.42,0-0.82,0.06-1.21,0.16l-3.53-8.21c0.58-0.59,0.78-1.5,0.44-2.31c-0.46-1.07-1.7-1.56-2.77-1.1
		c-1.07,0.46-1.57,1.7-1.11,2.76c0.35,0.81,1.15,1.29,1.98,1.27l3.54,8.23l0.01-0.02l0.04,0.01c-1.21,0.82-2.01,2.19-2.05,3.74
		L115,37.21c-0.42-0.72-1.25-1.14-2.12-1.02c-1.15,0.17-1.95,1.23-1.79,2.38c0.17,1.15,1.24,1.95,2.39,1.78
		c0.87-0.13,1.54-0.77,1.75-1.57l7.3-1.05c0.62,1.85,2.37,3.19,4.43,3.19c1.13,0,2.16-0.4,2.97-1.07l2.81,2.11
		c-0.21,0.8,0.07,1.69,0.77,2.22c0.93,0.7,2.25,0.51,2.95-0.42C137.17,42.84,136.98,41.52,136.05,40.82z M126.96,39.34
		c-1.69,0-3.07-1.37-3.07-3.06c0-1.69,1.38-3.06,3.07-3.06c1.69,0,3.07,1.37,3.07,3.06C130.03,37.97,128.65,39.34,126.96,39.34z"/>
</g>
</svg>
